<svg width="375" height="878" viewBox="0 0 375 878" fill="none" xmlns="http://www.w3.org/2000/svg">
<g clip-path="url(#clip0_2498_730)">
<rect width="375" height="878" fill="white"/>
<path d="M238.371 661.688C238.371 661.688 291.426 687.209 357.951 597.73C417.031 518.264 481.847 603.825 487.454 651.207C494.719 712.586 433.648 778.549 470.367 810.813C507.086 843.077 418.174 934.037 359.934 889.38C287.486 833.828 276.43 896.581 239.645 905.85C213.244 912.502 151.667 859.246 182.786 800.241C208.972 750.589 190.642 740.919 180.906 728.446C166.864 710.457 188.468 646.584 238.371 661.688Z" fill="#E7EDF6"/>
<path d="M-11.3424 -84.5478C-11.3424 -84.5478 17.3563 -33.1416 123.257 -68.0289C217.307 -99.0124 221.069 8.26134 198.384 50.237C168.999 104.612 81.0936 123.407 92.5525 170.925C104.011 218.443 -21.0491 241.656 -42.975 171.618C-70.2498 84.4922 -115.407 129.448 -150.824 115.856C-176.243 106.101 -195.949 27.1101 -136.541 -3.23294C-86.5504 -28.7659 -95.9749 -47.2238 -96.758 -63.0275C-97.8881 -85.8196 -43.459 -125.62 -11.3424 -84.5478Z" fill="#E7EDF6"/>
</g>
<defs>
<clipPath id="clip0_2498_730">
<rect width="375" height="878" fill="white"/>
</clipPath>
</defs>
</svg>
