<svg width="194" height="187" viewBox="0 0 194 187" fill="none" xmlns="http://www.w3.org/2000/svg">
<path d="M101.751 17.2844C101.751 17.2844 106.785 49.6562 161.049 50.5497C209.24 51.3431 193.924 108.661 176.817 126.685C154.658 150.032 111.23 143.925 108.951 171.1C106.672 198.275 45.4487 187.725 46.4914 146.752C47.7887 95.7826 19.8701 111.281 5.73643 97.6474C-4.40741 87.8623 -0.920713 42.5677 31.2317 37.3821C58.2872 33.0186 56.8846 21.5557 59.0357 13.0697C62.1377 0.831196 93.5024 -10.2551 101.751 17.2844Z" fill="#E7EDF6"/>
<path d="M152.8 132.517C152.803 133.34 152.643 134.155 152.331 134.915C152.018 135.676 151.558 136.367 150.978 136.95C150.397 137.533 149.708 137.995 148.948 138.311C148.189 138.626 147.374 138.789 146.552 138.789L46.3269 138.993C45.5046 138.995 44.69 138.835 43.9296 138.522C43.1693 138.209 42.478 137.749 41.8955 137.169C41.313 136.588 40.8506 135.899 40.5348 135.14C40.2189 134.381 40.0559 133.567 40.0549 132.744L39.9141 62.2736L95.3902 27.4454C95.6384 27.2888 95.9255 27.205 96.219 27.2036C96.5125 27.2022 96.8005 27.2833 97.0501 27.4376L151.359 61.2397L152.659 62.0462V63.1738L152.8 132.517Z" fill="#0D47A1"/>
<path d="M144.622 33.5107H47.3536C47.1216 33.5107 46.9336 33.6988 46.9336 33.9307V138.014C46.9336 138.246 47.1216 138.434 47.3536 138.434H144.622C144.854 138.434 145.042 138.246 145.042 138.014V33.9307C145.042 33.6988 144.854 33.5107 144.622 33.5107Z" fill="#699CFF"/>
<path d="M146.452 138.69L96.7054 100.76C96.6653 100.73 96.6331 100.69 96.6113 100.645C96.5896 100.599 96.5789 100.549 96.5802 100.499C96.5815 100.448 96.5947 100.399 96.6188 100.355C96.6429 100.311 96.6771 100.273 96.7187 100.244L152.159 62.3523C152.206 62.3197 152.262 62.3007 152.32 62.2974C152.378 62.2941 152.435 62.3066 152.487 62.3336C152.538 62.3605 152.581 62.4009 152.611 62.4504C152.64 62.4999 152.656 62.5567 152.657 62.6145L152.797 132.484C152.8 134.125 152.159 135.702 151.011 136.875C149.864 138.049 148.302 138.725 146.661 138.759C146.585 138.76 146.512 138.736 146.452 138.69Z" fill="#3B72D0"/>
<path d="M46.4105 138.889L96.0049 100.761C96.0449 100.731 96.077 100.691 96.0985 100.645C96.1201 100.6 96.1306 100.55 96.1291 100.5C96.1276 100.449 96.1142 100.4 96.0899 100.356C96.0656 100.312 96.0312 100.274 95.9895 100.245L40.3992 62.5753C40.3513 62.5428 40.2955 62.524 40.2377 62.521C40.1799 62.5179 40.1224 62.5306 40.0713 62.5577C40.0202 62.5849 39.9775 62.6254 39.9477 62.6751C39.918 62.7247 39.9023 62.7814 39.9023 62.8393L40.0423 132.708C40.0456 134.349 40.6929 135.924 41.8448 137.093C42.9968 138.262 44.5614 138.932 46.2023 138.959C46.2776 138.96 46.3509 138.935 46.4105 138.889Z" fill="#3B72D0"/>
<path d="M146.544 138.76L46.3196 138.961C44.8034 138.959 43.3388 138.409 42.1963 137.413C41.0538 136.416 40.3105 135.039 40.1036 133.537C40.0695 133.281 40.0991 133.021 40.1898 132.779C40.2805 132.537 40.4295 132.321 40.6235 132.151L95.2865 83.7897C95.572 83.5371 95.9398 83.3973 96.321 83.3965C96.7022 83.3957 97.0706 83.534 97.3571 83.7855L152.212 131.927C152.407 132.097 152.557 132.312 152.649 132.554C152.74 132.796 152.771 133.056 152.738 133.312C152.537 134.815 151.799 136.194 150.661 137.196C149.523 138.197 148.06 138.753 146.544 138.76Z" fill="#0D47A1"/>
<path d="M71.8321 59.3501C73.7781 59.3501 75.3556 57.2467 75.3556 54.6521C75.3556 52.0575 73.7781 49.9541 71.8321 49.9541C69.8861 49.9541 68.3086 52.0575 68.3086 54.6521C68.3086 57.2467 69.8861 59.3501 71.8321 59.3501Z" fill="white"/>
<path d="M121.16 59.3501C123.106 59.3501 124.684 57.2467 124.684 54.6521C124.684 52.0575 123.106 49.9541 121.16 49.9541C119.214 49.9541 117.637 52.0575 117.637 54.6521C117.637 57.2467 119.214 59.3501 121.16 59.3501Z" fill="white"/>
<path d="M109.809 74.9274C109.69 74.9275 109.573 74.8974 109.469 74.8398C109.365 74.7822 109.277 74.6991 109.214 74.5983C109.177 74.5399 105.345 68.6203 96.4388 67.8783C92.7317 67.5696 89.2137 68.6018 85.9865 70.9475C84.5472 71.981 83.2686 73.2217 82.1925 74.6295C82.0854 74.7802 81.9231 74.8824 81.7409 74.9139C81.5587 74.9453 81.3715 74.9034 81.2201 74.7973C81.0687 74.6912 80.9655 74.5295 80.9329 74.3476C80.9002 74.1656 80.9409 73.9781 81.0461 73.826C81.1047 73.742 82.513 71.7514 85.1216 69.8451C88.5893 67.3111 92.5431 66.1491 96.5549 66.4827C106.19 67.2856 110.234 73.5886 110.401 73.8564C110.467 73.9623 110.504 74.084 110.507 74.2089C110.51 74.3338 110.48 74.4573 110.42 74.5666C110.359 74.6758 110.271 74.767 110.163 74.8304C110.055 74.8939 109.933 74.9274 109.808 74.9276L109.809 74.9274Z" fill="white"/>
</svg>
