<svg width="152" height="163" viewBox="0 0 152 163" fill="none" xmlns="http://www.w3.org/2000/svg">
<path d="M1.93182 128.034V124.909H23.75V128.034H14.6023V154H11.0795V128.034H1.93182ZM26.4666 154V132.182H29.7053V135.477H29.9325C30.3303 134.398 31.05 133.522 32.0916 132.849C33.1333 132.177 34.3075 131.841 35.6143 131.841C35.8606 131.841 36.1683 131.846 36.5376 131.855C36.907 131.865 37.1863 131.879 37.3757 131.898V135.307C37.2621 135.278 37.0017 135.236 36.5945 135.179C36.1967 135.113 35.7753 135.08 35.3303 135.08C34.2697 135.08 33.3227 135.302 32.4893 135.747C31.6655 136.183 31.0121 136.789 30.5291 137.565C30.0556 138.332 29.8189 139.208 29.8189 140.193V154H26.4666ZM47.7699 154.511C46.3873 154.511 45.1326 154.251 44.0057 153.73C42.8788 153.2 41.9839 152.438 41.321 151.443C40.6581 150.439 40.3267 149.227 40.3267 147.807C40.3267 146.557 40.5729 145.544 41.0653 144.767C41.5578 143.981 42.2159 143.366 43.0398 142.92C43.8636 142.475 44.7727 142.144 45.767 141.926C46.7708 141.699 47.7794 141.519 48.7926 141.386C50.1184 141.216 51.1932 141.088 52.017 141.003C52.8504 140.908 53.4564 140.752 53.8352 140.534C54.2235 140.316 54.4176 139.937 54.4176 139.398V139.284C54.4176 137.883 54.0341 136.794 53.267 136.017C52.5095 135.241 51.3589 134.852 49.8153 134.852C48.215 134.852 46.9602 135.203 46.0511 135.903C45.142 136.604 44.5028 137.352 44.1335 138.148L40.9517 137.011C41.5199 135.686 42.2775 134.653 43.2244 133.915C44.1809 133.167 45.2225 132.646 46.3494 132.352C47.4858 132.049 48.6032 131.898 49.7017 131.898C50.4025 131.898 51.2074 131.983 52.1165 132.153C53.035 132.314 53.9205 132.651 54.7727 133.162C55.6345 133.673 56.3494 134.445 56.9176 135.477C57.4858 136.509 57.7699 137.892 57.7699 139.625V154H54.4176V151.045H54.2472C54.0199 151.519 53.6411 152.026 53.1108 152.565C52.5805 153.105 51.875 153.564 50.9943 153.943C50.1136 154.322 49.0388 154.511 47.7699 154.511ZM48.2812 151.5C49.607 151.5 50.7244 151.24 51.6335 150.719C52.5521 150.198 53.2434 149.526 53.7074 148.702C54.1809 147.878 54.4176 147.011 54.4176 146.102V143.034C54.2756 143.205 53.9631 143.361 53.4801 143.503C53.0066 143.635 52.4574 143.754 51.8324 143.858C51.2169 143.953 50.6155 144.038 50.0284 144.114C49.4508 144.18 48.982 144.237 48.6222 144.284C47.7509 144.398 46.9366 144.582 46.179 144.838C45.4309 145.084 44.8248 145.458 44.3608 145.96C43.9063 146.453 43.679 147.125 43.679 147.977C43.679 149.142 44.1098 150.023 44.9716 150.619C45.8428 151.206 46.946 151.5 48.2812 151.5ZM80.9482 132.182L72.88 154H69.4709L61.4027 132.182H65.0391L71.0618 149.568H71.2891L77.3118 132.182H80.9482ZM93.7393 154.455C91.6371 154.455 89.8236 153.991 88.299 153.062C86.7839 152.125 85.6143 150.818 84.7905 149.142C83.9761 147.456 83.5689 145.496 83.5689 143.261C83.5689 141.027 83.9761 139.057 84.7905 137.352C85.6143 135.638 86.7602 134.303 88.228 133.347C89.7053 132.381 91.4287 131.898 93.3984 131.898C94.5348 131.898 95.657 132.087 96.7649 132.466C97.8729 132.845 98.8814 133.46 99.7905 134.312C100.7 135.155 101.424 136.273 101.964 137.665C102.504 139.057 102.773 140.771 102.773 142.807V144.227H85.9553V141.33H99.3643C99.3643 140.098 99.1181 139 98.6257 138.034C98.1428 137.068 97.4515 136.306 96.5518 135.747C95.6617 135.188 94.6106 134.909 93.3984 134.909C92.0632 134.909 90.9079 135.241 89.9325 135.903C88.9666 136.557 88.2232 137.409 87.7024 138.46C87.1816 139.511 86.9212 140.638 86.9212 141.841V143.773C86.9212 145.42 87.2053 146.817 87.7734 147.963C88.3511 149.099 89.1513 149.966 90.174 150.562C91.1967 151.15 92.3852 151.443 93.7393 151.443C94.62 151.443 95.4155 151.32 96.1257 151.074C96.8454 150.818 97.4657 150.439 97.9865 149.938C98.5073 149.426 98.9098 148.792 99.1939 148.034L102.433 148.943C102.092 150.042 101.519 151.008 100.714 151.841C99.9089 152.665 98.9145 153.309 97.7308 153.773C96.5471 154.227 95.2166 154.455 93.7393 154.455ZM111.225 124.909V154H107.873V124.909H111.225ZM126.854 132.182V135.023H115.547V132.182H126.854ZM118.842 126.955H122.195V147.75C122.195 148.697 122.332 149.407 122.607 149.881C122.891 150.345 123.25 150.657 123.686 150.818C124.131 150.97 124.6 151.045 125.092 151.045C125.462 151.045 125.765 151.027 126.001 150.989C126.238 150.941 126.428 150.903 126.57 150.875L127.251 153.886C127.024 153.972 126.707 154.057 126.3 154.142C125.893 154.237 125.376 154.284 124.751 154.284C123.804 154.284 122.876 154.08 121.967 153.673C121.068 153.266 120.32 152.646 119.723 151.812C119.136 150.979 118.842 149.928 118.842 148.659V126.955ZM138.317 154.511C136.934 154.511 135.679 154.251 134.553 153.73C133.426 153.2 132.531 152.438 131.868 151.443C131.205 150.439 130.874 149.227 130.874 147.807C130.874 146.557 131.12 145.544 131.612 144.767C132.105 143.981 132.763 143.366 133.587 142.92C134.411 142.475 135.32 142.144 136.314 141.926C137.318 141.699 138.326 141.519 139.339 141.386C140.665 141.216 141.74 141.088 142.564 141.003C143.397 140.908 144.003 140.752 144.382 140.534C144.77 140.316 144.964 139.937 144.964 139.398V139.284C144.964 137.883 144.581 136.794 143.814 136.017C143.056 135.241 141.906 134.852 140.362 134.852C138.762 134.852 137.507 135.203 136.598 135.903C135.689 136.604 135.05 137.352 134.68 138.148L131.499 137.011C132.067 135.686 132.824 134.653 133.771 133.915C134.728 133.167 135.769 132.646 136.896 132.352C138.033 132.049 139.15 131.898 140.249 131.898C140.949 131.898 141.754 131.983 142.663 132.153C143.582 132.314 144.467 132.651 145.32 133.162C146.181 133.673 146.896 134.445 147.464 135.477C148.033 136.509 148.317 137.892 148.317 139.625V154H144.964V151.045H144.794C144.567 151.519 144.188 152.026 143.658 152.565C143.127 153.105 142.422 153.564 141.541 153.943C140.661 154.322 139.586 154.511 138.317 154.511ZM138.828 151.5C140.154 151.5 141.271 151.24 142.18 150.719C143.099 150.198 143.79 149.526 144.254 148.702C144.728 147.878 144.964 147.011 144.964 146.102V143.034C144.822 143.205 144.51 143.361 144.027 143.503C143.554 143.635 143.004 143.754 142.379 143.858C141.764 143.953 141.162 144.038 140.575 144.114C139.998 144.18 139.529 144.237 139.169 144.284C138.298 144.398 137.483 144.582 136.726 144.838C135.978 145.084 135.372 145.458 134.908 145.96C134.453 146.453 134.226 147.125 134.226 147.977C134.226 149.142 134.657 150.023 135.518 150.619C136.39 151.206 137.493 151.5 138.828 151.5Z" fill="#F3F3F3"/>
<path d="M95.56 45.5C95.56 32.9842 93.4769 21.6766 90.1278 13.5165C88.4527 9.43523 86.4708 6.16544 84.2956 3.92381C82.1219 1.68371 79.7869 0.5 77.3855 0.5C74.984 0.5 72.649 1.68371 70.4753 3.92381C68.3001 6.16544 66.3182 9.43523 64.6431 13.5165C61.294 21.6766 59.2109 32.9842 59.2109 45.5C59.2109 58.0158 61.294 69.3234 64.6431 77.4835C66.3182 81.5648 68.3001 84.8346 70.4753 87.0762C72.649 89.3163 74.984 90.5 77.3855 90.5C79.7869 90.5 82.1219 89.3163 84.2956 87.0762C86.4708 84.8346 88.4527 81.5648 90.1278 77.4835C93.4769 69.3234 95.56 58.0158 95.56 45.5Z" stroke="white"/>
<ellipse cx="2.48994" cy="2.42667" rx="2.48994" ry="2.42667" transform="matrix(1 0 0 -1 63.6895 12.7402)" fill="#96C8EF"/>
<ellipse cx="2.48994" cy="2.42667" rx="2.48994" ry="2.42667" transform="matrix(1 0 0 -1 86.0996 83.7202)" fill="#96C8EF"/>
<path d="M66.0291 58.3157C76.4096 65.6888 87.0157 70.7096 95.7579 72.8786C100.131 73.9635 104.011 74.3285 107.151 73.9354C110.291 73.5426 112.642 72.4009 114.05 70.5169C115.459 68.6328 115.855 66.1021 115.277 63.0692C114.699 60.0351 113.155 56.5469 110.756 52.8223C105.96 45.3757 97.8085 37.073 87.4281 29.7C77.0476 22.3269 66.4415 17.3061 57.6993 15.137C53.3267 14.0521 49.4466 13.6872 46.3059 14.0802C43.1666 14.4731 40.8157 15.6148 39.4068 17.4988C37.9979 19.3828 37.6026 21.9135 38.1801 24.9465C38.7579 27.9806 40.3025 31.4688 42.7011 35.1933C47.4968 42.6399 55.6487 50.9427 66.0291 58.3157Z" stroke="white"/>
<ellipse cx="2.48994" cy="2.42667" rx="2.48994" ry="2.42667" transform="matrix(1 0 0 -1 40.0371 37.6128)" fill="#6E432E"/>
<path d="M88.2822 57.1122C98.575 49.6234 106.628 41.23 111.336 33.7303C113.69 29.9791 115.194 26.4739 115.736 23.4335C116.278 20.3943 115.852 17.8681 114.421 15.9999C112.99 14.1316 110.626 13.0163 107.482 12.6587C104.337 12.3008 100.462 12.7092 96.1021 13.843C87.3861 16.1098 76.8399 21.249 66.5471 28.7377C56.2543 36.2265 48.2008 44.6199 43.4933 52.1197C41.1388 55.8708 39.6354 59.376 39.0935 62.4164C38.5517 65.4556 38.9768 67.9818 40.4079 69.8501C41.839 71.7183 44.2033 72.8336 47.3471 73.1913C50.4921 73.5491 54.3677 73.1408 58.7272 72.007C67.4431 69.7402 77.9893 64.601 88.2822 57.1122Z" stroke="white"/>
<ellipse cx="2.48994" cy="2.42667" rx="2.48994" ry="2.42667" transform="matrix(1 0 0 -1 97.4141 15.7188)" fill="#6E432E"/>
<ellipse cx="2.48994" cy="2.42667" rx="2.48994" ry="2.42667" transform="matrix(1 0 0 -1 50.6191 75.8335)" fill="#F7CD7E"/>
<ellipse cx="2.48994" cy="2.42667" rx="2.48994" ry="2.42667" transform="matrix(1 0 0 -1 111.617 61.2729)" fill="#F7CD7E"/>
</svg>
