<svg width="170" height="187" viewBox="0 0 170 187" fill="none" xmlns="http://www.w3.org/2000/svg">
<path d="M159.46 61.7899C159.46 61.7899 134.421 83.7678 163.251 130.83C188.856 172.626 131.305 190.743 106.505 185.892C74.3792 179.607 55.9338 139.002 31.3658 151.868C6.79772 164.734 -17.541 106.432 18.1955 84.9778C62.6503 58.2903 34.1198 42.7818 38.1125 23.2137C40.9782 9.16991 81.7567 -12.5432 103.745 12.2249C122.247 33.0669 131.321 25.6105 139.778 22.8282C151.975 18.8152 178.598 39.6888 159.46 61.7899Z" fill="#E7EDF6"/>
<path d="M88.5661 86.5567L80.3628 120.205C80.0583 121.453 80.0025 122.749 80.1989 124.018C80.3952 125.287 80.8397 126.506 81.507 127.603C82.1743 128.701 83.0513 129.656 84.0878 130.414C85.1244 131.173 86.3003 131.72 87.5483 132.024L128.347 141.97C129.396 153.488 138.928 154.339 142.688 154.734C142.726 154.736 142.762 154.726 142.793 154.705C142.823 154.684 142.846 154.653 142.858 154.618C142.869 154.583 142.869 154.545 142.856 154.51C142.844 154.475 142.82 154.445 142.789 154.425C140.088 152.779 139.282 148.266 139.102 144.592L142.131 145.33C143.379 145.635 144.674 145.691 145.944 145.494C147.213 145.298 148.431 144.854 149.529 144.186C150.626 143.519 151.582 142.642 152.34 141.605C153.099 140.569 153.645 139.393 153.949 138.145L162.152 104.496C162.457 103.248 162.513 101.953 162.316 100.684C162.12 99.4141 161.676 98.1959 161.008 97.0984C160.341 96.0009 159.464 95.0456 158.427 94.2871C157.391 93.5286 156.215 92.9818 154.967 92.6779L100.385 79.3711C99.1367 79.0666 97.8411 79.0108 96.5717 79.2072C95.3023 79.4035 94.0841 79.848 92.9866 80.5153C91.889 81.1825 90.9337 82.0595 90.1753 83.0962C89.4168 84.1328 88.87 85.3087 88.5661 86.5567Z" fill="#3B72D0"/>
<path d="M156.242 103.156L133.428 97.5946C133.278 97.558 133.127 97.6501 133.09 97.8004L131.92 102.601C131.883 102.751 131.975 102.903 132.125 102.939L154.939 108.501C155.089 108.538 155.241 108.446 155.277 108.295L156.448 103.495C156.484 103.345 156.392 103.193 156.242 103.156Z" fill="white"/>
<path d="M152.985 116.518L91.1724 101.449C91.0222 101.413 90.8707 101.505 90.8341 101.655L89.6637 106.456C89.6271 106.606 89.7192 106.757 89.8694 106.794L151.682 121.863C151.832 121.9 151.983 121.808 152.02 121.658L153.19 116.857C153.227 116.707 153.135 116.555 152.985 116.518Z" fill="#E7EDF6"/>
<path d="M149.727 129.881L87.9146 114.811C87.7644 114.775 87.6129 114.867 87.5763 115.017L86.4059 119.818C86.3693 119.968 86.4614 120.12 86.6116 120.156L148.424 135.226C148.574 135.262 148.725 135.17 148.762 135.02L149.932 130.219C149.969 130.069 149.877 129.917 149.727 129.881Z" fill="#E7EDF6"/>
<path d="M111.537 46.1922L124.951 89.2701C125.449 90.8676 125.628 92.5475 125.476 94.2139C125.325 95.8802 124.846 97.5004 124.068 98.9818C123.29 100.463 122.228 101.777 120.942 102.848C119.657 103.919 118.173 104.726 116.575 105.223L64.3439 121.487C63.9213 136.547 51.5982 138.433 46.7412 139.253C46.693 139.259 46.644 139.249 46.6021 139.225C46.5602 139.2 46.5277 139.162 46.5098 139.117C46.4919 139.072 46.4896 139.022 46.5033 138.975C46.517 138.929 46.5459 138.888 46.5854 138.86C49.9617 136.499 50.6413 130.566 50.5754 125.774L46.6974 126.982C45.1 127.479 43.4202 127.658 41.7539 127.506C40.0876 127.355 38.4675 126.876 36.9861 126.098C35.5048 125.321 34.1912 124.258 33.1204 122.973C32.0496 121.687 31.2426 120.203 30.7455 118.606L17.331 75.5276C16.833 73.9302 16.6547 72.2502 16.8062 70.5839C16.9577 68.9175 17.4361 67.2973 18.214 65.8159C18.9918 64.3344 20.054 63.0207 21.3397 61.9499C22.6255 60.8791 24.1096 60.0721 25.7073 59.575L95.5842 37.8158C97.1817 37.3179 98.8616 37.1396 100.528 37.2911C102.194 37.4426 103.815 37.921 105.296 38.6988C106.777 39.4767 108.091 40.5389 109.162 41.8246C110.233 43.1103 111.04 44.5944 111.537 46.1922Z" fill="#0D47A1"/>
<path d="M62.1866 61.621L24.7674 73.2581C24.6197 73.3041 24.5372 73.461 24.5832 73.6087L26.5453 79.918C26.5912 80.0657 26.7482 80.1482 26.8959 80.1022L64.3151 68.4651C64.4627 68.4192 64.5452 68.2622 64.4993 68.1145L62.5371 61.8052C62.4912 61.6576 62.3343 61.5751 62.1866 61.621Z" fill="white"/>
<path d="M109.407 65.6194L30.113 90.3123C29.9654 90.3582 29.883 90.5152 29.929 90.6628L31.8933 96.9707C31.9392 97.1183 32.0962 97.2007 32.2439 97.1547L111.538 72.4619C111.686 72.4159 111.768 72.259 111.722 72.1113L109.758 65.8035C109.712 65.6559 109.555 65.5735 109.407 65.6194Z" fill="#E7EDF6"/>
<path d="M114.727 82.8135L35.4139 107.479C35.2662 107.525 35.1837 107.682 35.2296 107.83L37.1918 114.139C37.2377 114.287 37.3947 114.369 37.5424 114.323L116.855 89.6576C117.003 89.6117 117.085 89.4547 117.04 89.307L115.077 82.9977C115.031 82.8501 114.874 82.7676 114.727 82.8135Z" fill="#E7EDF6"/>
</svg>
