<svg width="220" height="188" viewBox="0 0 220 188" fill="none" xmlns="http://www.w3.org/2000/svg">
<path d="M148.597 8.60704C148.597 8.60704 118.648 46.5427 70.7291 23.9144C22.8104 1.28602 -25.1086 62.5157 16.1549 99.7858C57.4184 137.056 17.039 157.536 45.0718 180.377C76.9328 206.338 104.672 153.695 129.962 165.674C185.779 192.114 227.131 181.647 217.813 151.032C201.457 97.2922 180.543 93.7961 196.516 65.8434C212.489 37.8907 177.236 -20.2297 148.597 8.60704Z" fill="#E7EDF6"/>
<path d="M132.292 113.527L129.926 126.23L118.656 186.615L98.3555 182.825L111.372 113.069L111.991 109.745L132.292 113.527Z" fill="#699CFF"/>
<path d="M182.288 83.1489L175.288 120.677C175.267 120.787 175.225 120.892 175.164 120.986C175.103 121.08 175.024 121.161 174.932 121.224C174.84 121.287 174.736 121.331 174.626 121.355C174.517 121.378 174.404 121.379 174.294 121.358L75.9492 103.016L87.5244 40.9541L162.204 54.8827C175.739 57.4066 184.729 70.0593 182.288 83.1489Z" fill="#3B72D0"/>
<path d="M108.53 70.5547L101.584 107.792L49.9629 98.1639L56.908 60.9267C59.4651 47.2166 73.0944 38.2573 87.349 40.9159C101.604 43.5745 111.087 56.8442 108.53 70.5547Z" fill="#699CFF"/>
<path d="M132.562 87.9617C128.757 87.2522 126.248 83.5551 126.964 79.7157C127.68 75.8764 131.354 73.3317 135.158 74.0417C136.37 74.2695 137.501 74.8144 138.435 75.6209C139.369 76.4275 140.072 77.467 140.474 78.6337L188.526 87.5959L187.228 94.5562L139.176 85.5939C138.38 86.5376 137.35 87.2538 136.188 87.6697C135.026 88.0856 133.775 88.1864 132.562 87.9617Z" fill="#0D47A1"/>
<path d="M106.816 71.239L100.049 107.519L51.4199 98.4493L58.1871 62.169C60.6784 48.8113 73.5846 40.0126 87.0131 42.5172C100.442 45.0218 109.307 57.8812 106.816 71.239Z" fill="#0D47A1"/>
<path d="M133.923 84.4456C135.878 84.4456 137.463 82.8606 137.463 80.9054C137.463 78.9502 135.878 77.3652 133.923 77.3652C131.968 77.3652 130.383 78.9502 130.383 80.9054C130.383 82.8606 131.968 84.4456 133.923 84.4456Z" fill="white"/>
<path d="M189.08 87.5715L184.835 110.33C184.817 110.428 184.761 110.514 184.678 110.571C184.596 110.627 184.495 110.649 184.397 110.63L173.239 108.549C173.22 108.546 173.203 108.534 173.191 108.518C173.18 108.502 173.176 108.482 173.18 108.463L177.48 85.4079C177.483 85.3885 177.494 85.3714 177.511 85.3603C177.527 85.3491 177.547 85.3449 177.566 85.3485L189.021 87.4849C189.04 87.4885 189.057 87.4997 189.068 87.5159C189.08 87.5322 189.084 87.5521 189.08 87.5715Z" fill="#699CFF"/>
<path d="M67.5128 85.4303C67.9827 88.8868 71.7756 92.9951 71.7756 92.9951C65.9961 93.4047 62.8661 90.1363 61.5193 88.1503C59.8542 88.6314 58.1428 88.9351 56.4138 89.0563C44.5487 89.8973 34.3346 82.151 33.5969 71.7456C32.8592 61.3403 41.8787 52.2305 53.7439 51.3896C65.609 50.5488 75.8224 58.2947 76.5599 68.7002C77.0397 75.4685 73.3875 81.6897 67.5128 85.4303Z" fill="white"/>
<path d="M101.633 107.815C101.096 109.175 91.2703 149.69 59.4738 143.76C24.6069 137.857 49.8269 98.1523 49.8269 98.1523L101.633 107.815Z" fill="#3B72D0"/>
<path d="M55.079 73.7923C56.7083 73.7923 58.0291 72.4715 58.0291 70.8422C58.0291 69.2129 56.7083 67.8921 55.079 67.8921C53.4497 67.8921 52.1289 69.2129 52.1289 70.8422C52.1289 72.4715 53.4497 73.7923 55.079 73.7923Z" fill="#699CFF"/>
<path d="M41.8702 72.506C43.5093 72.506 44.8381 71.1773 44.8381 69.5382C44.8381 67.8991 43.5093 66.5703 41.8702 66.5703C40.2311 66.5703 38.9023 67.8991 38.9023 69.5382C38.9023 71.1773 40.2311 72.506 41.8702 72.506Z" fill="#699CFF"/>
<path d="M68.1593 75.0495C69.7984 75.0495 71.1271 73.7207 71.1271 72.0816C71.1271 70.4425 69.7984 69.1138 68.1593 69.1138C66.5202 69.1138 65.1914 70.4425 65.1914 72.0816C65.1914 73.7207 66.5202 75.0495 68.1593 75.0495Z" fill="#699CFF"/>
<path d="M132.291 113.527L129.925 126.23L111.371 113.069L111.99 109.745L132.291 113.527Z" fill="#0D47A1"/>
</svg>
